<mxfile host="app.diagrams.net" agent="Mozilla/5.0 (Windows NT 10.0; Win64; x64) AppleWebKit/537.36 (KHTML, like Gecko) Chrome/140.0.0.0 Safari/537.36" version="28.1.1">
  <diagram name="Page-1" id="KTZyMNtFJtc5oDWequN5">
    <mxGraphModel dx="2633" dy="2089" grid="1" gridSize="10" guides="1" tooltips="1" connect="1" arrows="1" fold="1" page="1" pageScale="1" pageWidth="850" pageHeight="1100" math="0" shadow="0">
      <root>
        <mxCell id="0" />
        <mxCell id="1" parent="0" />
        <mxCell id="3qTpC5l7BRmtFpW9Mhmy-1" value="" style="swimlane;startSize=0;" parent="1" vertex="1">
          <mxGeometry x="-54" y="-100" width="1264" height="820" as="geometry" />
        </mxCell>
        <mxCell id="JJLgTYYRaxFMVhVvFGDK-20" value="" style="edgeStyle=orthogonalEdgeStyle;rounded=0;orthogonalLoop=1;jettySize=auto;html=1;" edge="1" parent="3qTpC5l7BRmtFpW9Mhmy-1" target="JJLgTYYRaxFMVhVvFGDK-24">
          <mxGeometry relative="1" as="geometry">
            <mxPoint x="140" y="410" as="sourcePoint" />
            <mxPoint x="240" y="410" as="targetPoint" />
          </mxGeometry>
        </mxCell>
        <mxCell id="JJLgTYYRaxFMVhVvFGDK-78" value="" style="edgeStyle=orthogonalEdgeStyle;rounded=0;orthogonalLoop=1;jettySize=auto;html=1;entryX=0.586;entryY=0.822;entryDx=0;entryDy=0;entryPerimeter=0;" edge="1" parent="3qTpC5l7BRmtFpW9Mhmy-1" source="JJLgTYYRaxFMVhVvFGDK-9" target="JJLgTYYRaxFMVhVvFGDK-76">
          <mxGeometry relative="1" as="geometry" />
        </mxCell>
        <mxCell id="JJLgTYYRaxFMVhVvFGDK-9" value="API Gateway" style="text;html=1;align=center;verticalAlign=middle;resizable=0;points=[];autosize=1;strokeColor=none;fillColor=none;fontStyle=1" vertex="1" parent="3qTpC5l7BRmtFpW9Mhmy-1">
          <mxGeometry x="50" y="338" width="90" height="30" as="geometry" />
        </mxCell>
        <mxCell id="JJLgTYYRaxFMVhVvFGDK-21" value="" style="sketch=0;points=[[0,0,0],[0.25,0,0],[0.5,0,0],[0.75,0,0],[1,0,0],[0,1,0],[0.25,1,0],[0.5,1,0],[0.75,1,0],[1,1,0],[0,0.25,0],[0,0.5,0],[0,0.75,0],[1,0.25,0],[1,0.5,0],[1,0.75,0]];outlineConnect=0;fontColor=#232F3E;fillColor=#E7157B;strokeColor=#ffffff;dashed=0;verticalLabelPosition=bottom;verticalAlign=top;align=center;html=1;fontSize=12;fontStyle=0;aspect=fixed;shape=mxgraph.aws4.resourceIcon;resIcon=mxgraph.aws4.api_gateway;" vertex="1" parent="3qTpC5l7BRmtFpW9Mhmy-1">
          <mxGeometry x="62" y="371" width="78" height="78" as="geometry" />
        </mxCell>
        <mxCell id="JJLgTYYRaxFMVhVvFGDK-17" value="&lt;div&gt;&lt;br&gt;&lt;/div&gt;" style="sketch=0;outlineConnect=0;gradientColor=none;html=1;whiteSpace=wrap;fontSize=12;fontStyle=0;shape=mxgraph.aws4.group;grIcon=mxgraph.aws4.group_vpc;strokeColor=#879196;fillColor=none;verticalAlign=top;align=left;spacingLeft=30;fontColor=#879196;dashed=0;" vertex="1" parent="3qTpC5l7BRmtFpW9Mhmy-1">
          <mxGeometry x="180" y="130" width="930" height="560" as="geometry" />
        </mxCell>
        <mxCell id="JJLgTYYRaxFMVhVvFGDK-24" value="" style="sketch=0;outlineConnect=0;fontColor=#232F3E;gradientColor=none;fillColor=#8C4FFF;strokeColor=none;dashed=0;verticalLabelPosition=bottom;verticalAlign=top;align=center;html=1;fontSize=12;fontStyle=0;aspect=fixed;pointerEvents=1;shape=mxgraph.aws4.endpoints;" vertex="1" parent="3qTpC5l7BRmtFpW9Mhmy-1">
          <mxGeometry x="220" y="371" width="78" height="78" as="geometry" />
        </mxCell>
        <mxCell id="JJLgTYYRaxFMVhVvFGDK-69" value="" style="edgeStyle=orthogonalEdgeStyle;rounded=0;orthogonalLoop=1;jettySize=auto;html=1;" edge="1" parent="3qTpC5l7BRmtFpW9Mhmy-1" source="JJLgTYYRaxFMVhVvFGDK-22" target="JJLgTYYRaxFMVhVvFGDK-68">
          <mxGeometry relative="1" as="geometry" />
        </mxCell>
        <mxCell id="JJLgTYYRaxFMVhVvFGDK-22" value="" style="outlineConnect=0;dashed=0;verticalLabelPosition=bottom;verticalAlign=top;align=center;html=1;shape=mxgraph.aws3.application_load_balancer;fillColor=#F58534;gradientColor=none;" vertex="1" parent="3qTpC5l7BRmtFpW9Mhmy-1">
          <mxGeometry x="376" y="374" width="69" height="72" as="geometry" />
        </mxCell>
        <mxCell id="JJLgTYYRaxFMVhVvFGDK-25" value="" style="edgeStyle=orthogonalEdgeStyle;rounded=0;orthogonalLoop=1;jettySize=auto;html=1;" edge="1" parent="3qTpC5l7BRmtFpW9Mhmy-1" source="JJLgTYYRaxFMVhVvFGDK-24" target="JJLgTYYRaxFMVhVvFGDK-22">
          <mxGeometry relative="1" as="geometry" />
        </mxCell>
        <mxCell id="JJLgTYYRaxFMVhVvFGDK-26" value="Private Subnet" style="text;html=1;align=center;verticalAlign=middle;resizable=0;points=[];autosize=1;strokeColor=none;fillColor=none;fontStyle=1" vertex="1" parent="3qTpC5l7BRmtFpW9Mhmy-1">
          <mxGeometry x="217" y="130" width="100" height="30" as="geometry" />
        </mxCell>
        <mxCell id="JJLgTYYRaxFMVhVvFGDK-32" value="- RateLimiting" style="text;html=1;align=center;verticalAlign=middle;resizable=0;points=[];autosize=1;strokeColor=none;fillColor=none;" vertex="1" parent="3qTpC5l7BRmtFpW9Mhmy-1">
          <mxGeometry x="51" y="484" width="100" height="30" as="geometry" />
        </mxCell>
        <mxCell id="JJLgTYYRaxFMVhVvFGDK-31" value="- Routing" style="text;html=1;align=center;verticalAlign=middle;resizable=0;points=[];autosize=1;strokeColor=none;fillColor=none;" vertex="1" parent="3qTpC5l7BRmtFpW9Mhmy-1">
          <mxGeometry x="55" y="511" width="70" height="30" as="geometry" />
        </mxCell>
        <mxCell id="JJLgTYYRaxFMVhVvFGDK-35" value="&lt;b&gt;Admin Service&lt;/b&gt;" style="rounded=0;whiteSpace=wrap;html=1;" vertex="1" parent="3qTpC5l7BRmtFpW9Mhmy-1">
          <mxGeometry x="614" y="150" width="120" height="60" as="geometry" />
        </mxCell>
        <mxCell id="JJLgTYYRaxFMVhVvFGDK-38" value="&lt;b&gt;Search Service&lt;/b&gt;" style="rounded=0;whiteSpace=wrap;html=1;" vertex="1" parent="3qTpC5l7BRmtFpW9Mhmy-1">
          <mxGeometry x="614" y="260" width="120" height="60" as="geometry" />
        </mxCell>
        <mxCell id="JJLgTYYRaxFMVhVvFGDK-58" value="" style="edgeStyle=orthogonalEdgeStyle;rounded=0;orthogonalLoop=1;jettySize=auto;html=1;" edge="1" parent="3qTpC5l7BRmtFpW9Mhmy-1" source="JJLgTYYRaxFMVhVvFGDK-37" target="JJLgTYYRaxFMVhVvFGDK-45">
          <mxGeometry relative="1" as="geometry">
            <mxPoint x="814" y="401" as="targetPoint" />
          </mxGeometry>
        </mxCell>
        <mxCell id="JJLgTYYRaxFMVhVvFGDK-37" value="&lt;b&gt;Showtime Service/&lt;br&gt;Event Service&lt;/b&gt;" style="rounded=0;whiteSpace=wrap;html=1;" vertex="1" parent="3qTpC5l7BRmtFpW9Mhmy-1">
          <mxGeometry x="614" y="371" width="120" height="60" as="geometry" />
        </mxCell>
        <mxCell id="JJLgTYYRaxFMVhVvFGDK-41" value="&lt;b&gt;Booking Service&lt;/b&gt;" style="rounded=0;whiteSpace=wrap;html=1;" vertex="1" parent="3qTpC5l7BRmtFpW9Mhmy-1">
          <mxGeometry x="614" y="484" width="120" height="60" as="geometry" />
        </mxCell>
        <mxCell id="JJLgTYYRaxFMVhVvFGDK-80" value="" style="edgeStyle=orthogonalEdgeStyle;rounded=0;orthogonalLoop=1;jettySize=auto;html=1;" edge="1" parent="3qTpC5l7BRmtFpW9Mhmy-1" source="JJLgTYYRaxFMVhVvFGDK-36" target="JJLgTYYRaxFMVhVvFGDK-79">
          <mxGeometry relative="1" as="geometry" />
        </mxCell>
        <mxCell id="JJLgTYYRaxFMVhVvFGDK-36" value="&lt;b&gt;Payment Gateway Service&lt;/b&gt;" style="rounded=0;whiteSpace=wrap;html=1;" vertex="1" parent="3qTpC5l7BRmtFpW9Mhmy-1">
          <mxGeometry x="614" y="600" width="120" height="60" as="geometry" />
        </mxCell>
        <mxCell id="JJLgTYYRaxFMVhVvFGDK-44" value="&lt;b&gt;Elastic Search&lt;/b&gt;" style="outlineConnect=0;dashed=0;verticalLabelPosition=bottom;verticalAlign=top;align=center;html=1;shape=mxgraph.aws3.elasticsearch_service;fillColor=#F58534;gradientColor=none;" vertex="1" parent="3qTpC5l7BRmtFpW9Mhmy-1">
          <mxGeometry x="894" y="149" width="67.5" height="81" as="geometry" />
        </mxCell>
        <mxCell id="JJLgTYYRaxFMVhVvFGDK-45" value="&lt;b&gt;MongoDB/Cassandra&lt;/b&gt;" style="sketch=0;points=[[0,0,0],[0.25,0,0],[0.5,0,0],[0.75,0,0],[1,0,0],[0,1,0],[0.25,1,0],[0.5,1,0],[0.75,1,0],[1,1,0],[0,0.25,0],[0,0.5,0],[0,0.75,0],[1,0.25,0],[1,0.5,0],[1,0.75,0]];outlineConnect=0;fontColor=#232F3E;fillColor=#C925D1;strokeColor=#ffffff;dashed=0;verticalLabelPosition=bottom;verticalAlign=top;align=center;html=1;fontSize=12;fontStyle=0;aspect=fixed;shape=mxgraph.aws4.resourceIcon;resIcon=mxgraph.aws4.managed_apache_cassandra_service;" vertex="1" parent="3qTpC5l7BRmtFpW9Mhmy-1">
          <mxGeometry x="904" y="310" width="68" height="68" as="geometry" />
        </mxCell>
        <mxCell id="JJLgTYYRaxFMVhVvFGDK-46" value="&lt;b&gt;MySQL/PostGres&lt;/b&gt;" style="image;aspect=fixed;perimeter=ellipsePerimeter;html=1;align=center;shadow=0;dashed=0;spacingTop=3;image=img/lib/active_directory/database.svg;" vertex="1" parent="3qTpC5l7BRmtFpW9Mhmy-1">
          <mxGeometry x="910" y="456.33" width="88.75" height="65.68" as="geometry" />
        </mxCell>
        <mxCell id="JJLgTYYRaxFMVhVvFGDK-47" value="&lt;b&gt;Redis&lt;/b&gt;" style="image;sketch=0;aspect=fixed;html=1;points=[];align=center;fontSize=12;image=img/lib/mscae/Cache_Redis_Product.svg;" vertex="1" parent="3qTpC5l7BRmtFpW9Mhmy-1">
          <mxGeometry x="918" y="590" width="71.42" height="60" as="geometry" />
        </mxCell>
        <mxCell id="JJLgTYYRaxFMVhVvFGDK-50" value="" style="endArrow=classic;html=1;rounded=0;" edge="1" parent="3qTpC5l7BRmtFpW9Mhmy-1" target="JJLgTYYRaxFMVhVvFGDK-46">
          <mxGeometry width="50" height="50" relative="1" as="geometry">
            <mxPoint x="734" y="180" as="sourcePoint" />
            <mxPoint x="784" y="130" as="targetPoint" />
          </mxGeometry>
        </mxCell>
        <mxCell id="JJLgTYYRaxFMVhVvFGDK-55" value="" style="endArrow=classic;html=1;rounded=0;exitX=1;exitY=0.5;exitDx=0;exitDy=0;" edge="1" parent="3qTpC5l7BRmtFpW9Mhmy-1" source="JJLgTYYRaxFMVhVvFGDK-38" target="JJLgTYYRaxFMVhVvFGDK-44">
          <mxGeometry width="50" height="50" relative="1" as="geometry">
            <mxPoint x="484" y="100" as="sourcePoint" />
            <mxPoint x="534" y="50" as="targetPoint" />
          </mxGeometry>
        </mxCell>
        <mxCell id="JJLgTYYRaxFMVhVvFGDK-59" value="" style="endArrow=classic;html=1;rounded=0;exitX=1;exitY=0.25;exitDx=0;exitDy=0;" edge="1" parent="3qTpC5l7BRmtFpW9Mhmy-1" source="JJLgTYYRaxFMVhVvFGDK-41" target="JJLgTYYRaxFMVhVvFGDK-45">
          <mxGeometry width="50" height="50" relative="1" as="geometry">
            <mxPoint x="684" y="450" as="sourcePoint" />
            <mxPoint x="734" y="400" as="targetPoint" />
          </mxGeometry>
        </mxCell>
        <mxCell id="JJLgTYYRaxFMVhVvFGDK-60" value="" style="endArrow=classic;html=1;rounded=0;exitX=1;exitY=0.5;exitDx=0;exitDy=0;" edge="1" parent="3qTpC5l7BRmtFpW9Mhmy-1" source="JJLgTYYRaxFMVhVvFGDK-41" target="JJLgTYYRaxFMVhVvFGDK-46">
          <mxGeometry width="50" height="50" relative="1" as="geometry">
            <mxPoint x="684" y="450" as="sourcePoint" />
            <mxPoint x="734" y="400" as="targetPoint" />
          </mxGeometry>
        </mxCell>
        <mxCell id="JJLgTYYRaxFMVhVvFGDK-61" value="" style="endArrow=classic;html=1;rounded=0;exitX=1;exitY=0.75;exitDx=0;exitDy=0;" edge="1" parent="3qTpC5l7BRmtFpW9Mhmy-1" source="JJLgTYYRaxFMVhVvFGDK-41" target="JJLgTYYRaxFMVhVvFGDK-47">
          <mxGeometry width="50" height="50" relative="1" as="geometry">
            <mxPoint x="684" y="450" as="sourcePoint" />
            <mxPoint x="734" y="400" as="targetPoint" />
          </mxGeometry>
        </mxCell>
        <mxCell id="JJLgTYYRaxFMVhVvFGDK-63" value="" style="endArrow=classic;html=1;rounded=0;exitX=0.5;exitY=1;exitDx=0;exitDy=0;" edge="1" parent="3qTpC5l7BRmtFpW9Mhmy-1" source="JJLgTYYRaxFMVhVvFGDK-41" target="JJLgTYYRaxFMVhVvFGDK-36">
          <mxGeometry width="50" height="50" relative="1" as="geometry">
            <mxPoint x="684" y="450" as="sourcePoint" />
            <mxPoint x="734" y="400" as="targetPoint" />
          </mxGeometry>
        </mxCell>
        <mxCell id="JJLgTYYRaxFMVhVvFGDK-56" value="" style="endArrow=classic;html=1;rounded=0;entryX=0;entryY=0.75;entryDx=0;entryDy=0;exitX=0.855;exitY=0.145;exitDx=0;exitDy=0;exitPerimeter=0;" edge="1" parent="3qTpC5l7BRmtFpW9Mhmy-1" source="JJLgTYYRaxFMVhVvFGDK-22" target="JJLgTYYRaxFMVhVvFGDK-35">
          <mxGeometry width="50" height="50" relative="1" as="geometry">
            <mxPoint x="484" y="100" as="sourcePoint" />
            <mxPoint x="534" y="50" as="targetPoint" />
          </mxGeometry>
        </mxCell>
        <mxCell id="JJLgTYYRaxFMVhVvFGDK-67" value="" style="endArrow=classic;html=1;rounded=0;" edge="1" parent="3qTpC5l7BRmtFpW9Mhmy-1" source="JJLgTYYRaxFMVhVvFGDK-22" target="JJLgTYYRaxFMVhVvFGDK-38">
          <mxGeometry width="50" height="50" relative="1" as="geometry">
            <mxPoint x="684" y="450" as="sourcePoint" />
            <mxPoint x="734" y="400" as="targetPoint" />
          </mxGeometry>
        </mxCell>
        <mxCell id="JJLgTYYRaxFMVhVvFGDK-68" value="" style="shape=waypoint;sketch=0;size=6;pointerEvents=1;points=[];fillColor=#F58534;resizable=0;rotatable=0;perimeter=centerPerimeter;snapToPoint=1;verticalAlign=top;dashed=0;gradientColor=none;" vertex="1" parent="3qTpC5l7BRmtFpW9Mhmy-1">
          <mxGeometry x="604" y="391" width="20" height="20" as="geometry" />
        </mxCell>
        <mxCell id="JJLgTYYRaxFMVhVvFGDK-71" value="" style="endArrow=classic;html=1;rounded=0;exitX=0.855;exitY=0.855;exitDx=0;exitDy=0;exitPerimeter=0;entryX=0;entryY=0.433;entryDx=0;entryDy=0;entryPerimeter=0;" edge="1" parent="3qTpC5l7BRmtFpW9Mhmy-1" source="JJLgTYYRaxFMVhVvFGDK-22" target="JJLgTYYRaxFMVhVvFGDK-41">
          <mxGeometry width="50" height="50" relative="1" as="geometry">
            <mxPoint x="684" y="450" as="sourcePoint" />
            <mxPoint x="734" y="400" as="targetPoint" />
          </mxGeometry>
        </mxCell>
        <mxCell id="JJLgTYYRaxFMVhVvFGDK-76" value="&lt;b&gt;AWS Cognito&lt;/b&gt;" style="outlineConnect=0;dashed=0;verticalLabelPosition=bottom;verticalAlign=top;align=center;html=1;shape=mxgraph.aws3.cognito;fillColor=#AD688B;gradientColor=none;" vertex="1" parent="3qTpC5l7BRmtFpW9Mhmy-1">
          <mxGeometry x="60.87" y="120" width="58.25" height="73" as="geometry" />
        </mxCell>
        <mxCell id="JJLgTYYRaxFMVhVvFGDK-77" value="" style="shape=waypoint;sketch=0;size=6;pointerEvents=1;points=[];fillColor=none;resizable=0;rotatable=0;perimeter=centerPerimeter;snapToPoint=1;" vertex="1" parent="3qTpC5l7BRmtFpW9Mhmy-1">
          <mxGeometry x="85" y="233" width="20" height="20" as="geometry" />
        </mxCell>
        <mxCell id="JJLgTYYRaxFMVhVvFGDK-79" value="&lt;b&gt;Notification Service&lt;/b&gt;" style="rounded=0;whiteSpace=wrap;html=1;" vertex="1" parent="3qTpC5l7BRmtFpW9Mhmy-1">
          <mxGeometry x="419" y="600" width="120" height="60" as="geometry" />
        </mxCell>
        <mxCell id="JJLgTYYRaxFMVhVvFGDK-81" value="" style="points=[];aspect=fixed;html=1;align=center;shadow=0;dashed=0;fillColor=#FF6A00;strokeColor=none;shape=mxgraph.alibaba_cloud.kafka;" vertex="1" parent="3qTpC5l7BRmtFpW9Mhmy-1">
          <mxGeometry x="989.4200000000001" y="240" width="56.699999999999996" height="42" as="geometry" />
        </mxCell>
        <mxCell id="JJLgTYYRaxFMVhVvFGDK-85" value="" style="endArrow=classic;html=1;rounded=0;exitX=0.491;exitY=0.143;exitDx=0;exitDy=0;exitPerimeter=0;entryX=1;entryY=0.5;entryDx=0;entryDy=0;entryPerimeter=0;" edge="1" parent="3qTpC5l7BRmtFpW9Mhmy-1" source="JJLgTYYRaxFMVhVvFGDK-81" target="JJLgTYYRaxFMVhVvFGDK-44">
          <mxGeometry width="50" height="50" relative="1" as="geometry">
            <mxPoint x="544" y="390" as="sourcePoint" />
            <mxPoint x="594" y="340" as="targetPoint" />
          </mxGeometry>
        </mxCell>
        <mxCell id="JJLgTYYRaxFMVhVvFGDK-94" value="" style="edgeStyle=orthogonalEdgeStyle;rounded=0;orthogonalLoop=1;jettySize=auto;html=1;" edge="1" parent="3qTpC5l7BRmtFpW9Mhmy-1" source="JJLgTYYRaxFMVhVvFGDK-89" target="JJLgTYYRaxFMVhVvFGDK-93">
          <mxGeometry relative="1" as="geometry" />
        </mxCell>
        <mxCell id="JJLgTYYRaxFMVhVvFGDK-89" value="&lt;b&gt;Debezium&lt;/b&gt;" style="outlineConnect=0;dashed=0;verticalLabelPosition=bottom;verticalAlign=top;align=center;html=1;shape=mxgraph.aws3.event_event_based;fillColor=#759C3E;gradientColor=none;" vertex="1" parent="3qTpC5l7BRmtFpW9Mhmy-1">
          <mxGeometry x="972" y="331.5" width="30.58" height="25" as="geometry" />
        </mxCell>
        <mxCell id="JJLgTYYRaxFMVhVvFGDK-93" value="" style="shape=waypoint;sketch=0;size=6;pointerEvents=1;points=[];fillColor=#759C3E;resizable=0;rotatable=0;perimeter=centerPerimeter;snapToPoint=1;verticalAlign=top;dashed=0;gradientColor=none;" vertex="1" parent="3qTpC5l7BRmtFpW9Mhmy-1">
          <mxGeometry x="1013.9999999999999" y="262" width="20" height="20" as="geometry" />
        </mxCell>
        <mxCell id="JJLgTYYRaxFMVhVvFGDK-98" value="- Filters&lt;div&gt;&lt;br&gt;&lt;/div&gt;" style="text;html=1;align=center;verticalAlign=middle;resizable=0;points=[];autosize=1;strokeColor=none;fillColor=none;" vertex="1" parent="3qTpC5l7BRmtFpW9Mhmy-1">
          <mxGeometry x="60" y="541" width="60" height="40" as="geometry" />
        </mxCell>
        <mxCell id="3qTpC5l7BRmtFpW9Mhmy-3" value="" style="html=1;verticalLabelPosition=bottom;align=center;labelBackgroundColor=#ffffff;verticalAlign=top;strokeWidth=2;strokeColor=#0080F0;shadow=0;dashed=0;shape=mxgraph.ios7.icons.smartphone;" parent="1" vertex="1">
          <mxGeometry x="-380" y="194.5" width="39" height="70" as="geometry" />
        </mxCell>
        <mxCell id="3qTpC5l7BRmtFpW9Mhmy-4" value="" style="outlineConnect=0;dashed=0;verticalLabelPosition=bottom;verticalAlign=top;align=center;html=1;shape=mxgraph.aws3.route_53;fillColor=#F58536;gradientColor=none;" parent="1" vertex="1">
          <mxGeometry x="-200" y="264.5" width="70.5" height="85.5" as="geometry" />
        </mxCell>
        <mxCell id="3qTpC5l7BRmtFpW9Mhmy-5" value="" style="endArrow=classic;html=1;rounded=0;" parent="1" target="3qTpC5l7BRmtFpW9Mhmy-4" edge="1">
          <mxGeometry width="50" height="50" relative="1" as="geometry">
            <mxPoint x="-334.41387061561" y="156.39" as="sourcePoint" />
            <mxPoint x="310" y="270" as="targetPoint" />
          </mxGeometry>
        </mxCell>
        <mxCell id="3qTpC5l7BRmtFpW9Mhmy-6" value="" style="endArrow=classic;html=1;rounded=0;" parent="1" target="3qTpC5l7BRmtFpW9Mhmy-4" edge="1">
          <mxGeometry width="50" height="50" relative="1" as="geometry">
            <mxPoint x="-340" y="230" as="sourcePoint" />
            <mxPoint x="310" y="270" as="targetPoint" />
          </mxGeometry>
        </mxCell>
        <mxCell id="3qTpC5l7BRmtFpW9Mhmy-8" value="" style="endArrow=classic;html=1;rounded=0;" parent="1" target="JJLgTYYRaxFMVhVvFGDK-21" edge="1">
          <mxGeometry width="50" height="50" relative="1" as="geometry">
            <mxPoint x="-129.5" y="311.17935871743475" as="sourcePoint" />
            <mxPoint x="-40" y="311" as="targetPoint" />
          </mxGeometry>
        </mxCell>
        <mxCell id="JJLgTYYRaxFMVhVvFGDK-1" value="" style="verticalLabelPosition=bottom;html=1;verticalAlign=top;align=center;strokeColor=none;fillColor=#00BEF2;shape=mxgraph.azure.laptop;pointerEvents=1;" vertex="1" parent="1">
          <mxGeometry x="-390" y="120" width="54.5" height="40" as="geometry" />
        </mxCell>
        <mxCell id="JJLgTYYRaxFMVhVvFGDK-3" value="" style="sketch=0;aspect=fixed;pointerEvents=1;shadow=0;dashed=0;html=1;strokeColor=none;labelPosition=center;verticalLabelPosition=bottom;verticalAlign=top;align=center;fillColor=#00188D;shape=mxgraph.azure.laptop" vertex="1" parent="1">
          <mxGeometry x="-390" y="397.3" width="54.5" height="32.7" as="geometry" />
        </mxCell>
        <mxCell id="JJLgTYYRaxFMVhVvFGDK-5" value="" style="html=1;verticalLabelPosition=bottom;align=center;labelBackgroundColor=#ffffff;verticalAlign=top;strokeWidth=2;strokeColor=#0080F0;shadow=0;dashed=0;shape=mxgraph.ios7.icons.smartphone;" vertex="1" parent="1">
          <mxGeometry x="-382.25" y="470" width="32.25" height="60" as="geometry" />
        </mxCell>
        <mxCell id="JJLgTYYRaxFMVhVvFGDK-6" value="Route53" style="text;html=1;align=center;verticalAlign=middle;resizable=0;points=[];autosize=1;strokeColor=none;fillColor=none;" vertex="1" parent="1">
          <mxGeometry x="-199.75" y="350" width="70" height="30" as="geometry" />
        </mxCell>
        <mxCell id="JJLgTYYRaxFMVhVvFGDK-28" value="- Auth" style="text;html=1;align=center;verticalAlign=middle;resizable=0;points=[];autosize=1;strokeColor=none;fillColor=none;" vertex="1" parent="1">
          <mxGeometry x="3" y="358" width="50" height="30" as="geometry" />
        </mxCell>
        <mxCell id="JJLgTYYRaxFMVhVvFGDK-74" value="" style="endArrow=classic;html=1;rounded=0;exitX=0.92;exitY=0.5;exitDx=0;exitDy=0;exitPerimeter=0;" edge="1" parent="1" source="JJLgTYYRaxFMVhVvFGDK-3">
          <mxGeometry width="50" height="50" relative="1" as="geometry">
            <mxPoint x="-310" y="280" as="sourcePoint" />
            <mxPoint x="-170" y="342" as="targetPoint" />
          </mxGeometry>
        </mxCell>
        <mxCell id="JJLgTYYRaxFMVhVvFGDK-75" value="" style="endArrow=classic;html=1;rounded=0;exitX=1.062;exitY=0.475;exitDx=0;exitDy=0;exitPerimeter=0;entryX=0.525;entryY=-0.05;entryDx=0;entryDy=0;entryPerimeter=0;" edge="1" parent="1" source="JJLgTYYRaxFMVhVvFGDK-5" target="JJLgTYYRaxFMVhVvFGDK-6">
          <mxGeometry width="50" height="50" relative="1" as="geometry">
            <mxPoint x="-310" y="502" as="sourcePoint" />
            <mxPoint x="-140" y="430" as="targetPoint" />
          </mxGeometry>
        </mxCell>
        <mxCell id="JJLgTYYRaxFMVhVvFGDK-96" value="&lt;b&gt;Theatre Partners (B2B)&lt;/b&gt;" style="text;html=1;align=center;verticalAlign=middle;resizable=0;points=[];autosize=1;strokeColor=none;fillColor=none;" vertex="1" parent="1">
          <mxGeometry x="-455" y="162" width="150" height="30" as="geometry" />
        </mxCell>
        <mxCell id="JJLgTYYRaxFMVhVvFGDK-97" value="&lt;b&gt;Client&lt;/b&gt;" style="text;html=1;align=center;verticalAlign=middle;resizable=0;points=[];autosize=1;strokeColor=none;fillColor=none;" vertex="1" parent="1">
          <mxGeometry x="-400" y="436" width="60" height="30" as="geometry" />
        </mxCell>
      </root>
    </mxGraphModel>
  </diagram>
</mxfile>
